M48
; DRILL file {KiCad 7.0.1} date Thu Apr 27 17:16:39 2023
; FORMAT={-:-/ absolute / inch / decimal}
; #@! TF.CreationDate,2023-04-27T17:16:39-05:00
; #@! TF.GenerationSoftware,Kicad,Pcbnew,7.0.1
; #@! TF.FileFunction,Plated,1,2,PTH
FMAT,2
INCH
; #@! TA.AperFunction,Plated,PTH,ViaDrill
T1C0.0157
; #@! TA.AperFunction,Plated,PTH,ComponentDrill
T2C0.0295
; #@! TA.AperFunction,Plated,PTH,ComponentDrill
T3C0.0315
; #@! TA.AperFunction,Plated,PTH,ComponentDrill
T4C0.0354
; #@! TA.AperFunction,Plated,PTH,ComponentDrill
T5C0.0394
%
G90
G05
T1
X4.11Y-3.7449
X4.1112Y-3.2933
X4.1582Y-3.7819
X4.1608Y-3.3562
X4.232Y-3.5629
X4.2508Y-2.4477
X4.3394Y-3.1991
X4.3997Y-3.4332
X4.5Y-3.0
X4.6339Y-3.8561
X4.6453Y-3.0952
X4.6453Y-3.6448
X4.6496Y-2.4095
X4.9Y-3.1
X5.0Y-2.3
X5.1Y-2.2
X5.1595Y-3.5441
X5.1595Y-3.8026
X5.4006Y-3.5251
X5.6465Y-3.3999
X5.6465Y-3.8026
X5.7Y-3.7
X5.7Y-3.9
X5.7014Y-3.49
T2
X4.9Y-2.1
X4.95Y-2.1
X5.0Y-2.1
T3
X4.1333Y-3.8554
X4.2317Y-3.8554
X4.2359Y-3.7
X4.25Y-3.1
X4.4Y-2.7
X4.5359Y-3.7
X4.55Y-3.1
X4.5969Y-2.7
X4.7504Y-2.4494
X4.7504Y-2.5494
X4.7504Y-2.6494
X4.7504Y-2.7494
X4.7504Y-2.8494
X4.7504Y-2.9494
X4.7504Y-3.0494
X4.7504Y-3.1494
X4.7504Y-3.2494
X4.7504Y-3.3494
X4.7504Y-3.4494
X4.7504Y-3.5494
X4.7504Y-3.6494
X4.7504Y-3.7494
X5.0504Y-2.4494
X5.0504Y-2.5494
X5.0504Y-2.6494
X5.0504Y-2.7494
X5.0504Y-2.8494
X5.0504Y-2.9494
X5.0504Y-3.0494
X5.0504Y-3.1494
X5.0504Y-3.2494
X5.0504Y-3.3494
X5.0504Y-3.4494
X5.0504Y-3.5494
X5.0504Y-3.6494
X5.0504Y-3.7494
X5.2031Y-3.2413
X5.2174Y-2.4511
X5.2493Y-3.5632
X5.25Y-3.4
X5.3Y-2.3
X5.3159Y-2.4511
X5.35Y-2.6556
X5.4Y-3.2413
X5.4969Y-2.3
X5.5493Y-3.5632
X5.55Y-3.4
X5.647Y-2.2654
X5.65Y-2.6556
X5.8439Y-2.2654
T4
X5.3Y-3.7
X5.3Y-3.8
X5.5Y-3.7
X5.5Y-3.8
X5.8Y-2.4
X5.8Y-2.5
T5
X4.0392Y-2.2565
X4.0392Y-2.3565
X4.0437Y-2.5528
X4.0437Y-2.6528
X4.0437Y-2.7528
X4.0437Y-2.8528
X4.0437Y-2.9528
X4.0437Y-3.0528
X4.0437Y-3.1528
X4.0437Y-3.2528
X4.0437Y-3.3528
X4.0437Y-3.4528
X4.0437Y-3.5528
X4.0437Y-3.6528
X4.2Y-2.1
X4.3Y-2.1
X4.3Y-3.3
X4.3Y-3.5
X4.4Y-2.1
X4.5Y-2.1
X4.5Y-3.3
X4.5Y-3.5
X4.5016Y-2.3
X4.6Y-2.1
X4.6Y-2.3
X4.7Y-2.1
X4.7Y-2.3
X5.7941Y-2.6483
X5.7941Y-2.7483
X5.7941Y-2.8483
X5.7941Y-2.9483
X5.7941Y-3.0483
X5.7941Y-3.1483
X5.7941Y-3.2483
X5.7941Y-3.3483
X5.7941Y-3.4483
X5.7941Y-3.5483
X5.7941Y-3.6483
X5.7941Y-3.7483
T0
M30
